HIERARCHY
ROOT Hips
{
	OFFSET 0.00000 0.00000 0.00000
	CHANNELS 6 Xposition Yposition Zposition Zrotation Yrotation Xrotation 
	JOINT LHipJoint
	{
		OFFSET 0 0 0
		CHANNELS 3 Zrotation Yrotation Xrotation
		JOINT LeftUpLeg
		{
			OFFSET 1.62964 -1.40469 0.78906
			CHANNELS 3 Zrotation Yrotation Xrotation
			JOINT LeftLeg
			{
				OFFSET 2.29640 -6.30932 0.00000
				CHANNELS 3 Zrotation Yrotation Xrotation
				JOINT LeftFoot
				{
					OFFSET 2.29451 -6.30412 0.00000
					CHANNELS 3 Zrotation Yrotation Xrotation
					JOINT LeftToeBase
					{
						OFFSET 0.03611 -0.09921 1.56387
						CHANNELS 3 Zrotation Yrotation Xrotation
						End Site
						{
							OFFSET 0.00000 -0.00000 0.80291
						}
					}
				}
			}
		}
	}
	JOINT RHipJoint
	{
		OFFSET 0 0 0
		CHANNELS 3 Zrotation Yrotation Xrotation
		JOINT RightUpLeg
		{
			OFFSET -1.73712 -1.40469 0.78906
			CHANNELS 3 Zrotation Yrotation Xrotation
			JOINT RightLeg
			{
				OFFSET -2.28137 -6.26801 0.00000
				CHANNELS 3 Zrotation Yrotation Xrotation
				JOINT RightFoot
				{
					OFFSET -2.28681 -6.28298 0.00000
					CHANNELS 3 Zrotation Yrotation Xrotation
					JOINT RightToeBase
					{
						OFFSET -0.15927 -0.43759 1.61103
						CHANNELS 3 Zrotation Yrotation Xrotation
						End Site
						{
							OFFSET -0.00000 -0.00000 0.84630
						}
					}
				}
			}
		}
	}
	JOINT LowerBack
	{
		OFFSET 0 0 0
		CHANNELS 3 Zrotation Yrotation Xrotation
		JOINT Spine
		{
			OFFSET -0.04227 2.04338 -0.00225
			CHANNELS 3 Zrotation Yrotation Xrotation
			JOINT Spine1
			{
				OFFSET -0.02148 2.04482 -0.04273
				CHANNELS 3 Zrotation Yrotation Xrotation
				JOINT Neck
				{
					OFFSET 0 0 0
					CHANNELS 3 Zrotation Yrotation Xrotation
					JOINT Neck1
					{
						OFFSET 0.09180 1.44629 0.19359
						CHANNELS 3 Zrotation Yrotation Xrotation
						JOINT Head
						{
							OFFSET 0.00887 1.40645 0.14750
							CHANNELS 3 Zrotation Yrotation Xrotation
							End Site
							{
								OFFSET -0.00669 1.50671 0.03707
							}
						}
					}
				}
				JOINT LeftShoulder
				{
					OFFSET 0 0 0
					CHANNELS 3 Zrotation Yrotation Xrotation
					JOINT LeftArm
					{
						OFFSET 2.17674 1.86763 -0.06520
						CHANNELS 3 Zrotation Yrotation Xrotation
						JOINT LeftForeArm
						{
							OFFSET 4.65776 -0.00000 0.00000
							CHANNELS 3 Zrotation Yrotation Xrotation
							JOINT LeftHand
							{
								OFFSET 3.55539 -0.00000 0.00000
								CHANNELS 3 Zrotation Yrotation Xrotation
								JOINT LeftFingerBase
								{
									OFFSET 0 0 0
									CHANNELS 3 Zrotation Yrotation Xrotation
									JOINT LeftHandIndex1
									{
										OFFSET 0.70726 -0.00000 0.00000
										CHANNELS 3 Zrotation Yrotation Xrotation
										End Site
										{
											OFFSET 0.57022 -0.00000 0.00000
										}
									}
								}
								JOINT LThumb
								{
									OFFSET 0 0 0
									CHANNELS 3 Zrotation Yrotation Xrotation
									End Site
									{
										OFFSET 0.57892 -0.00000 0.57892
									}
								}
							}
						}
					}
				}
				JOINT RightShoulder
				{
					OFFSET 0 0 0
					CHANNELS 3 Zrotation Yrotation Xrotation
					JOINT RightArm
					{
						OFFSET -2.80694 1.55459 -0.32496
						CHANNELS 3 Zrotation Yrotation Xrotation
						JOINT RightForeArm
						{
							OFFSET -4.71925 -0.00000 -0.00000
							CHANNELS 3 Zrotation Yrotation Xrotation
							JOINT RightHand
							{
								OFFSET -3.56990 -0.00000 0.00000
								CHANNELS 3 Zrotation Yrotation Xrotation
								JOINT RightFingerBase
								{
									OFFSET 0 0 0
									CHANNELS 3 Zrotation Yrotation Xrotation
									JOINT RightHandIndex1
									{
										OFFSET -0.50776 -0.00000 0.00000
										CHANNELS 3 Zrotation Yrotation Xrotation
										End Site
										{
											OFFSET -0.40937 -0.00000 0.00000
										}
									}
								}
								JOINT RThumb
								{
									OFFSET 0 0 0
									CHANNELS 3 Zrotation Yrotation Xrotation
									End Site
									{
										OFFSET -0.41562 -0.00000 0.41562
									}
								}
							}
						}
					}
				}
			}
		}
	}
}
MOTION
Frames: 11
Frame Time: .0083333
10.5961 14.9652 14.8471 174.0990 0.1741 -163.4550 0.0000 0.0000 0.0000 14.1048 -10.2128 -52.4600 3.0345 10.7506 31.4434 -0.3466 10.8843 -0.4632 5.9194 -14.3498 -44.6575 0.0000 0.0000 0.0000 -4.5652 7.8498 3.8237 -4.0913 -12.2809 36.7330 -5.0508 5.8877 -41.5926 -7.8294 15.9923 -51.9458 2.9657 0.6775 -15.4099 -0.1359 0.3324 2.5119 -1.7490 0.3565 11.4737 -0.0665 4.9265 -1.0660 -0.8243 6.0983 14.3779 -0.0101 2.6714 5.0142 0.0000 -0.0000 0.0000 -71.4546 10.7500 11.7299 14.7602 -23.8110 -3.1285 -0.0000 0.0000 -4.2812 19.9361 -12.7275 -4.5688 -7.1250 0.0000 -0.0000 -5.0784 16.5042 3.4401 0.0000 -0.0000 0.0000 76.5824 -6.9310 20.7517 -44.4718 50.5071 -21.8303 0.0000 -0.0000 -9.0703 -6.3662 -55.9664 5.2826 7.1250 -0.0000 -0.0000 79.5726 -74.2519 -63.0956
10.4758 14.9269 14.7870 173.8280 -0.0117 -162.6540 0.0000 0.0000 0.0000 13.4361 -9.7991 -54.8256 3.4644 11.4113 33.6798 -0.2597 9.4887 -0.2471 5.8891 -14.3200 -44.5350 0.0000 0.0000 0.0000 -5.4650 7.6647 3.3879 -4.0523 -12.2297 36.5496 -4.8939 5.8029 -40.9120 -7.7926 15.9645 -51.8120 1.7945 0.3810 -15.0591 -0.0957 0.1713 2.5515 -1.0805 0.2009 11.2939 -0.2886 4.7318 -1.1543 -0.5901 5.8565 13.9433 0.0940 2.5758 4.8499 -0.0000 -0.0000 0.0000 -71.0785 9.8659 11.9788 14.7513 -23.7985 -3.1249 -0.0000 0.0000 -4.2816 20.3754 -13.1177 -4.8182 -7.1250 0.0000 -0.0000 -4.7871 16.0520 3.2884 -0.0000 -0.0000 0.0000 76.7227 -6.5876 20.6400 -44.8473 50.6935 -22.1205 0.0000 -0.0000 -9.1779 -4.5467 -59.2133 3.9081 7.1250 -0.0000 -0.0000 91.1715 -73.7132 -74.2365
10.3577 14.8979 14.7291 173.4850 -0.2923 -161.9650 0.0000 0.0000 0.0000 12.6044 -9.4970 -57.2607 3.9561 12.1018 36.0929 -0.1869 8.2153 0.2157 6.0278 -14.4553 -45.0934 0.0000 0.0000 0.0000 -6.3192 7.4493 3.0970 -4.0246 -12.1931 36.4186 -4.7215 5.3408 -40.2108 -7.9135 16.0553 -52.2505 0.5832 0.0725 -14.7654 -0.0597 -0.0079 2.8162 -0.3977 0.0377 11.4100 -0.5816 4.5993 -1.3651 -0.4435 5.7403 13.2981 0.1871 2.5464 4.6362 -0.0000 -0.0000 0.0000 -70.7275 8.5389 12.2196 14.7385 -23.7805 -3.1197 -0.0000 0.0000 -4.0868 20.8757 -12.3937 -4.6794 -7.1250 0.0000 -0.0000 -4.4165 16.7703 2.9633 -0.0000 -0.0000 0.0000 77.0749 -5.6784 20.0666 -44.7639 50.6523 -22.0560 0.0000 -0.0000 -8.9378 -0.4795 -64.2286 0.4318 7.1250 -0.0000 -0.0000 88.9121 72.3469 107.4111
10.2397 14.8760 14.6700 173.3200 -0.6905 -161.3790 0.0000 0.0000 0.0000 11.8853 -9.2363 -59.7477 4.5072 12.8063 38.6477 -0.1244 6.9978 0.8149 6.4303 -14.8328 -46.6853 0.0000 0.0000 0.0000 -6.8537 7.2085 2.9630 -4.0102 -12.1740 36.3502 -4.5854 4.8476 -39.6729 -8.0586 16.1622 -52.7736 -0.3738 -0.2146 -14.2387 0.0021 -0.2185 3.0201 0.1621 -0.1289 11.3297 -0.7974 4.4766 -1.5421 -0.3270 5.6272 12.7167 0.2560 2.5161 4.4462 -0.0000 -0.0000 0.0000 -70.2487 7.3992 12.7651 14.8212 -23.8964 -3.1531 -0.0000 0.0000 -3.9183 21.0494 -11.6664 -4.4499 -7.1250 0.0000 -0.0000 -4.2722 17.5258 2.7952 -0.0000 -0.0000 0.0000 77.5379 -4.9926 19.4784 -44.8239 50.6819 -22.1024 0.0000 -0.0000 -8.6321 -6.7197 -56.8997 5.6369 7.1250 -0.0000 -0.0000 82.8540 -74.4639 -66.5834
10.1406 14.8629 14.5978 173.3860 -1.0498 -160.8340 0.0000 0.0000 0.0000 11.4916 -8.8908 -62.0193 5.0433 13.4324 41.0095 -0.0896 6.1955 1.1591 6.6134 -14.9975 -47.3965 0.0000 0.0000 0.0000 -6.9774 7.2908 2.9199 -3.9636 -12.1118 36.1285 -4.4068 3.9514 -39.0095 -8.1920 16.2587 -53.2513 -1.3330 -0.4496 -13.7329 0.1554 -0.3805 3.1548 0.8355 -0.2774 11.1924 -1.0395 4.3830 -1.4972 -0.0813 5.5254 12.1266 0.3657 2.4920 4.2066 0.0000 -0.0000 0.0000 -69.6217 6.4862 13.5595 14.9064 -24.0155 -3.1877 -0.0000 0.0000 -3.8085 21.1218 -11.6878 -4.4747 -7.1250 0.0000 -0.0000 -4.2222 17.4967 2.7650 0.0000 -0.0000 0.0000 77.8868 -5.0193 19.2629 -45.5965 51.0574 -22.7018 0.0000 -0.0000 -8.7058 -7.5349 -53.1844 6.0447 7.1250 -0.0000 -0.0000 69.4627 -74.1044 -53.3300
10.0316 14.8521 14.5325 173.6620 -1.4449 -160.0380 0.0000 0.0000 0.0000 11.3591 -8.5496 -64.3861 5.5334 13.9604 43.0790 -0.0742 5.8223 1.3454 6.1907 -14.6107 -45.7425 0.0000 0.0000 0.0000 -6.9199 7.3786 2.6376 -3.9002 -12.0264 35.8256 -4.1900 3.3328 -38.1107 -8.2591 16.3066 -53.4907 -1.7188 -0.5230 -13.3613 0.1897 -0.4211 3.1933 1.0830 -0.3234 11.0212 -1.0883 4.2216 -1.6423 0.2302 5.3010 11.8988 0.4690 2.4055 4.1424 -0.0000 -0.0000 0.0000 -68.7312 5.4865 14.3819 14.9636 -24.0953 -3.2111 -0.0000 0.0000 -3.4849 21.4477 -12.3096 -4.7876 -7.1250 0.0000 -0.0000 -4.0161 16.8060 2.6901 -0.0000 -0.0000 0.0000 78.4947 -5.2227 18.9278 -46.4974 51.4813 -23.4046 0.0000 -0.0000 -8.9795 -8.4593 -53.4974 6.8173 7.1250 -0.0000 -0.0000 70.1365 -74.5342 -54.4362
9.9144 14.8468 14.4689 173.8260 -1.7544 -159.2200 0.0000 0.0000 0.0000 11.0628 -8.2904 -66.4491 5.9451 14.3749 44.7611 -0.0620 5.4815 1.4641 5.5875 -14.0163 -43.3029 0.0000 0.0000 0.0000 -7.0497 7.5105 2.3232 -3.8482 -11.9556 35.5752 -3.9885 3.6421 -37.0776 -8.0606 16.1636 -52.7805 -2.0679 -0.5055 -13.1424 0.1304 -0.3363 3.3151 1.2354 -0.3061 11.0283 -0.9166 3.9690 -1.7755 0.3348 4.9705 11.5522 0.4596 2.2706 4.0482 -0.0000 -0.0000 0.0000 -67.8065 4.3275 15.2834 15.1454 -24.3482 -3.2856 -0.0000 0.0000 -3.1487 21.5595 -13.0769 -5.1085 -7.1250 0.0000 -0.0000 -3.9690 15.9791 2.7297 -0.0000 -0.0000 0.0000 79.2506 -5.2538 18.3913 -47.3247 51.8578 -24.0536 0.0000 -0.0000 -9.2936 -9.0559 -54.2773 7.3729 7.1250 -0.0000 -0.0000 72.7139 -74.9461 -57.3056
9.7912 14.8506 14.4011 173.7570 -1.9648 -158.6200 0.0000 0.0000 0.0000 10.4449 -8.2909 -67.9117 6.2704 14.6853 46.0573 -0.0469 4.9495 1.5227 5.4795 -13.9042 -42.8550 0.0000 0.0000 0.0000 -7.4434 7.6714 2.3264 -3.7469 -11.8158 35.0833 -3.7476 3.9174 -35.8326 -7.8344 15.9961 -51.9638 -2.5229 -0.4547 -13.0100 -0.0426 -0.1780 3.6792 1.3389 -0.2649 11.3556 -0.7019 3.7136 -1.9895 0.4045 4.6498 11.0830 0.4320 2.1451 3.9284 0.0000 -0.0000 0.0000 -66.7652 2.7498 16.3281 15.3305 -24.6045 -3.3623 -0.0000 0.0000 -3.0539 21.5311 -13.3950 -5.2223 -7.1250 0.0000 -0.0000 -4.0022 15.6437 2.7816 0.0000 -0.0000 0.0000 79.9914 -4.9367 17.8693 -47.8718 52.1003 -24.4845 0.0000 -0.0000 -9.7393 -9.9428 -53.7247 8.0439 7.1250 -0.0000 -0.0000 70.3591 -75.1473 -55.3293
9.6682 14.8597 14.3341 173.7460 -2.0384 -158.0110 0.0000 0.0000 0.0000 9.9755 -8.3625 -69.0415 6.5241 14.9177 47.0505 -0.0377 4.3499 1.2464 5.6296 -14.0596 -43.4766 0.0000 0.0000 0.0000 -7.7884 8.0320 2.2915 -3.6397 -11.6648 34.5563 -3.4930 3.4971 -34.6181 -7.8449 16.0040 -52.0020 -2.8835 -0.3043 -12.7554 -0.2219 0.0923 3.9396 1.4068 -0.1627 11.4870 -0.5433 3.3934 -2.2639 0.5618 4.2184 10.8788 0.4431 1.9559 3.9119 -0.0000 -0.0000 0.0000 -65.6695 1.0522 17.5346 15.3985 -24.6983 -3.3907 -0.0000 0.0000 -2.9411 21.7331 -13.5737 -5.3447 -7.1250 0.0000 -0.0000 -3.8715 15.4329 2.7079 -0.0000 -0.0000 0.0000 80.6652 -4.2720 17.2182 -47.4635 51.9198 -24.1627 0.0000 -0.0000 -9.9559 -6.7952 -57.8350 5.7599 7.1250 -0.0000 -0.0000 86.2437 -74.5193 -70.0619
9.5318 14.8829 14.2364 174.1710 -1.4421 -158.0240 0.0000 0.0000 0.0000 9.7749 -7.9862 -68.7361 6.6185 15.0020 47.4161 -0.0357 3.7966 0.5180 5.8551 -14.2865 -44.3975 0.0000 0.0000 0.0000 -7.7989 9.0440 2.7970 -3.5127 -11.4820 33.9234 -3.2249 3.1746 -33.2701 -7.7817 15.9563 -51.7724 -2.8168 0.1035 -12.0365 -0.3287 0.6073 4.2497 1.3613 0.0844 11.3830 -0.5909 3.0651 -2.5047 0.7776 3.7628 10.9246 0.5098 1.7395 3.9726 0.0000 0.0000 0.0000 -64.7684 -0.2204 18.8420 15.6136 -24.9940 -3.4811 -0.0000 0.0000 -3.0151 21.8067 -13.3812 -5.2903 -7.1250 0.0000 -0.0000 -3.8121 15.6300 2.6500 0.0000 0.0000 0.0000 81.0390 -3.5458 16.8293 -46.6550 51.5540 -23.5279 0.0000 -0.0000 -9.9031 -8.3133 -55.4131 6.8595 7.1250 -0.0000 -0.0000 77.1128 -74.8808 -61.4249
9.4146 14.9096 14.2056 174.2810 -1.7190 -157.0630 0.0000 0.0000 0.0000 9.7397 -8.3301 -70.1377 6.8785 15.2287 48.4134 -0.0232 2.8055 -0.2077 6.2697 -14.6847 -46.0549 0.0000 0.0000 0.0000 -7.9647 9.2897 2.3385 -3.3943 -11.3076 33.3244 -2.9392 2.7872 -31.7840 -7.5519 15.7796 -50.9322 -3.1210 0.1037 -11.3074 -0.3290 0.6254 4.1202 1.5297 0.0819 10.7994 -0.7554 2.8268 -2.6893 0.9983 3.4412 10.8564 0.6011 1.5881 3.9796 -0.0000 0.0000 0.0000 -63.9428 -1.3357 20.1752 15.9803 -25.4939 -3.6375 -0.0000 0.0000 -3.2952 21.7796 -12.5940 -4.9790 -7.1250 0.0000 -0.0000 -3.7970 16.4713 2.5703 -0.0000 0.0000 0.0000 81.2232 -3.3241 17.0062 -47.0252 51.7229 -23.8182 0.0000 -0.0000 -10.0980 -8.6254 -53.5374 6.9555 7.1250 -0.0000 -0.0000 70.2060 -74.6065 -54.5819
